<svg xmlns="http://www.w3.org/2000/svg" viewBox="0 0 1200 360"><rect width="1200" height="360" rx="34" fill="#eef8ff"/><path d="M160 230 410 45l250 185v75H160z" fill="#fff" stroke="#9bc8e8" stroke-width="7"/><path d="M125 230 410 20l285 210" fill="none" stroke="#2f80ed" stroke-width="15"/><rect x="345" y="205" width="130" height="100" fill="#dff3ff"/><circle cx="540" cy="160" r="44" fill="#ffe08a"/><path d="M540 95v-22M540 225v22M475 160h-22M605 160h22" stroke="#f39c12" stroke-width="9" stroke-linecap="round"/><path d="M770 250c80-55 125-60 190-25 55 30 95 10 145-55" fill="none" stroke="#16a085" stroke-width="12"/><circle cx="780" cy="244" r="16" fill="#7c5cff"/><circle cx="960" cy="225" r="16" fill="#2f80ed"/><circle cx="1100" cy="170" r="16" fill="#e76f51"/><text x="755" y="105" font-family="Arial" font-size="38" font-weight="700" fill="#17324d">HOME ENERGY</text><text x="755" y="148" font-family="Arial" font-size="25" fill="#60758a">Bills • Climate • Home Conditions • Upgrades</text></svg>